<mxfile host="app.diagrams.net" modified="2023-07-19T04:49:59.293Z" agent="Mozilla/5.0 (Linux; Android 12; SM-X800) AppleWebKit/537.36 (KHTML, like Gecko) Chrome/112.0.0.0 Safari/537.36" version="21.6.3" etag="YDhsXjNqrjNFoW5aAkOb" type="github">
  <diagram name="ページ1" id="pw_HyTQkrGGc1f6yDsyo">
    <mxGraphModel>
      <root>
        <mxCell id="0" />
        <mxCell id="1" parent="0" />
      </root>
    </mxGraphModel>
  </diagram>
</mxfile>
